<svg id="Layer_2" enable-background="new 0 0 24 24" height="512" viewBox="0 0 24 24" width="512" xmlns="http://www.w3.org/2000/svg"><g><path d="m16.5 24h-13c-1.378 0-2.5-1.122-2.5-2.5v-14c0-1.378 1.122-2.5 2.5-2.5h1c.276 0 .5.224.5.5s-.224.5-.5.5h-1c-.827 0-1.5.673-1.5 1.5v14c0 .827.673 1.5 1.5 1.5h13c.827 0 1.5-.673 1.5-1.5v-1c0-.276.224-.5.5-.5s.5.224.5.5v1c0 1.378-1.122 2.5-2.5 2.5z"/></g><g><path d="m20.5 18h-11c-1.378 0-2.5-1.122-2.5-2.5v-13c0-1.378 1.122-2.5 2.5-2.5h11c1.378 0 2.5 1.122 2.5 2.5v13c0 1.378-1.122 2.5-2.5 2.5zm-11-17c-.827 0-1.5.673-1.5 1.5v13c0 .827.673 1.5 1.5 1.5h11c.827 0 1.5-.673 1.5-1.5v-13c0-.827-.673-1.5-1.5-1.5z"/></g></svg>